<?xml version="1.0" ?><!DOCTYPE svg  PUBLIC '-//W3C//DTD SVG 1.1//EN'  'http://www.w3.org/Graphics/SVG/1.1/DTD/svg11.dtd'><svg enable-background="new 0 0 128 128" id="Layer_1" version="1.1" viewBox="0 0 128 128" xml:space="preserve" xmlns="http://www.w3.org/2000/svg" xmlns:xlink="http://www.w3.org/1999/xlink"><path d="M95,115H33c-3.3,0-6-2.7-6-6V19c0-3.3,2.7-6,6-6h62c3.3,0,6,2.7,6,6v90C101,112.3,98.3,115,95,115z" fill="#3E3E42"/><rect fill="#57575E" height="74" width="64" x="32" y="27"/><circle cx="64" cy="108" fill="#323235" r="4"/><circle cx="64" cy="108" opacity="0.1" r="3.5"/><path d="M73,21H55c-0.6,0-1-0.4-1-1s0.4-1,1-1h18c0.6,0,1,0.4,1,1S73.6,21,73,21z" fill="#323235"/></svg>